<svg xmlns="http://www.w3.org/2000/svg" fill="none" viewBox="0 0 1024 245"><g clip-path="url(#a)"><path fill="#E8F0FE" d="M1023.97 0H32.2v203.21h991.77V0Z"/><path fill="#fff" d="M184.63 147.35c14.034 0 25.41-11.376 25.41-25.41s-11.376-25.41-25.41-25.41-25.41 11.376-25.41 25.41 11.376 25.41 25.41 25.41Z"/><path fill="#fff" d="M252.4 163.73c31.547 0 57.12-25.573 57.12-57.12 0-31.546-25.573-57.12-57.12-57.12-31.546 0-57.12 25.574-57.12 57.12 0 31.547 25.574 57.12 57.12 57.12Z"/><path fill="#fff" d="M321.22 134.24c14.492 0 26.24-11.748 26.24-26.24 0-14.492-11.748-26.24-26.24-26.24-14.492 0-26.24 11.748-26.24 26.24 0 14.492 11.748 26.24 26.24 26.24Z"/><path fill="#fff" d="M357.18 127.2c10.604 0 19.2-8.596 19.2-19.2s-8.596-19.2-19.2-19.2-19.2 8.596-19.2 19.2 8.596 19.2 19.2 19.2Z"/><path fill="#fff" d="M395.48 123.18c14.017 0 25.38-11.363 25.38-25.38s-11.363-25.38-25.38-25.38S370.1 83.783 370.1 97.8s11.363 25.38 25.38 25.38Z"/><path fill="#fff" d="M423.12 103.93c6.644 0 12.03-5.386 12.03-12.03 0-6.644-5.386-12.03-12.03-12.03-6.644 0-12.03 5.386-12.03 12.03 0 6.644 5.386 12.03 12.03 12.03Z"/><path fill="#fff" d="M442.44 118.38c8.969 0 16.24-7.271 16.24-16.24 0-8.97-7.271-16.24-16.24-16.24-8.969 0-16.24 7.27-16.24 16.24 0 8.969 7.271 16.24 16.24 16.24Z"/><path fill="#fff" d="M462.76 120.77c6.694 0 12.12-5.426 12.12-12.12 0-6.694-5.426-12.12-12.12-12.12-6.694 0-12.12 5.426-12.12 12.12 0 6.694 5.426 12.12 12.12 12.12Z"/><path fill="#fff" d="M493.29 132.43c12.576 0 22.77-10.194 22.77-22.77 0-12.575-10.194-22.77-22.77-22.77-12.575 0-22.77 10.195-22.77 22.77 0 12.576 10.195 22.77 22.77 22.77ZM561.5 112.35c14.061 0 25.46-11.399 25.46-25.46 0-14.061-11.399-25.46-25.46-25.46-14.061 0-25.46 11.399-25.46 25.46 0 14.061 11.399 25.46 25.46 25.46Z"/><path fill="#fff" d="M590.5 90.43c16.016 0 29-12.984 29-29s-12.984-29-29-29-29 12.984-29 29 12.984 29 29 29Z"/><path fill="#fff" d="M621.42 66.03a9.71 9.71 0 0 0 9.71-9.71 9.71 9.71 0 0 0-9.71-9.71 9.71 9.71 0 0 0-9.71 9.71 9.71 9.71 0 0 0 9.71 9.71Z"/><path fill="#fff" d="M640.83 67.33c7.417 0 13.43-6.013 13.43-13.43s-6.013-13.43-13.43-13.43-13.43 6.013-13.43 13.43 6.013 13.43 13.43 13.43ZM681.03 80.41c9.162 0 16.59-7.428 16.59-16.59 0-9.162-7.428-16.59-16.59-16.59-9.162 0-16.59 7.428-16.59 16.59 0 9.162 7.428 16.59 16.59 16.59Z"/><path fill="#fff" d="M710.98 85.82c9.163 0 16.59-7.428 16.59-16.59 0-9.162-7.427-16.59-16.59-16.59-9.162 0-16.59 7.428-16.59 16.59 0 9.162 7.428 16.59 16.59 16.59Z"/><path fill="#fff" d="M749.24 101.48c16.58 0 30.02-13.44 30.02-30.02s-13.44-30.02-30.02-30.02-30.02 13.44-30.02 30.02 13.44 30.02 30.02 30.02Z"/><path fill="#fff" d="M775.1 98.58c5.318 0 9.63-4.311 9.63-9.63 0-5.319-4.312-9.63-9.63-9.63a9.63 9.63 0 0 0-9.63 9.63 9.63 9.63 0 0 0 9.63 9.63Z"/><path fill="#fff" d="M788.88 111.82c6.495 0 11.76-5.265 11.76-11.76s-5.265-11.76-11.76-11.76-11.76 5.265-11.76 11.76 5.265 11.76 11.76 11.76Z"/><path stroke="#E8F0FE" stroke-linecap="round" stroke-linejoin="round" d="M183.26 95.88a28.902 28.902 0 0 1 22.35 10.55M321.13 81.09a26.892 26.892 0 0 1 25 17.2M303.83 80.52a57.355 57.355 0 0 1 4.26 11.38M414.18 79.86a27.522 27.522 0 0 1 4.3 6.1M369.69 96c.105-2.383.546-4.74 1.31-7M434.09 85.8a13.048 13.048 0 0 1 1.52 6.13M457.91 95.54a17.557 17.557 0 0 1 1.09 4.68M471.3 102a26.165 26.165 0 0 1 3-5.93M560.51 60.91a31.472 31.472 0 0 1 10.34 1.63M613.69 49.66a10.502 10.502 0 0 1 7.77-3.66M627 53.86a13.938 13.938 0 0 1 5.57-11.35M692.63 51.2a17.092 17.092 0 0 1 5.46 12.55M718.62 71.46a31.284 31.284 0 0 1 8.2-20.77M779.75 71.46a30.526 30.526 0 0 1-2.49 12.11M785.21 88.74a11.15 11.15 0 0 1-1.11 5"/><path fill="#AECBFA" d="m240.78 97.8 71.93 19.68 7.83-7.82-3.35-11.86 28.32 12.53-57.04 19.82 48.84 32.5h24.59l-3.13-12.37-12.57-6.41-5.31-7.9 40.24 17.14-2.08-7.9-4.72-1.04-6.31-8.05 37.26 20.42 24.3 6.11-103.91 31.67-12.53-32.48-55.74-14.49-13.3 3.5 23.27-36.82-8.44 4.35-4.34-10.38h-5.12l-8.69-10.2ZM647.5 47.23l88.88 33.8 137.58 34.95-12.58 21.8-54-17.01-82.88-9.99 6.58-23.89-59.41-9.37 4.7-13.7-16.9-1.43-11.97-15.16Z"/><path fill="#E8F0FE" d="m185.81 127.21 54.97-29.41 8.69 10.2h5.12l4.34 10.38 8.44-4.35-23.27 36.82 13.3-3.5 55.74 14.49 12.53 32.48-81.82 19.43-58.04-86.54ZM317.19 97.8 293 112.09l19.71 5.39 7.83-7.82-3.35-11.86ZM288.47 130.15l57.04-19.82 64.03-22.13 34.32 25.11-14.28 3.71 74.89 21.72-106.66 13.71-29.79-16.33 6.31 8.05 4.72 1.04 2.08 7.9-40.24-17.14 5.31 7.9 12.57 6.41 3.13 12.37h-24.59l-48.84-32.5Z"/><path fill="#AECBFA" d="m409.54 88.2 34.32 25.11-14.28 3.71 85.06 25.75-43.43-22 13.75-5.74-53.23-18.5-22.19-8.33Z"/><path fill="#E8F0FE" d="M471.21 120.77 647.5 47.23l11.97 15.16 16.9 1.43-4.7 13.7 59.41 9.37-6.58 23.89 82.88 9.99 54 17.01-7.28 29.58-103.54-13.62H553.35l73.53-31.69-112.24 20.72-43.43-22Z"/><path fill="#fff" d="M979.496.007 964 60.76l-15-28.33-20.6 74.86-20.61-35.83-12.58 28.6L881 7.6l-17.13 121-21.67-71.13-18.2 75-19.55-32.28-17 49.43c-17-3-34 1.17-54.27 1.17-20.54 0-41.55-6.94-54.07-5.88-12.52 1.06-29.75 7-57.79 4.13s-64 1.75-64 1.75l66.9-27.52C573.31 130 524 132.51 524 132.51c-25 0-53.57 9.17-53.57 9.17-53.57 2.83-72.7 10.82-72.7 10.82l7.47 4.09 10.5 2.64-23.58 5.9-23.92 3.1c-10.09 1.7-26.27 9.38-37.19 15.11-1.23-2.33-2.39-2.66-2.39-2.66a7.622 7.622 0 0 0-1.44 3 15.341 15.341 0 0 0-2.58-5.72 12.41 12.41 0 0 0-3.59 6.2 8.736 8.736 0 0 0-1.44-4.07 14.094 14.094 0 0 0-4.26 4.65 10.736 10.736 0 0 0-2.86-6.45c-2.83 2-2.84 4.36-2.82 4.79a9.683 9.683 0 0 0-1.81-5.48c-4 2.57-5.65 10.1-5.65 10.1a8.172 8.172 0 0 0-1.2-4.79c-4 .86-5.07 3.22-5.07 3.22-2.15-7.37-6.64-9.18-6.64-9.18-1.92 6.78.58 11.2.58 11.2a14.708 14.708 0 0 0-6.88 1.55 8.934 8.934 0 0 0 1.47-6 6.752 6.752 0 0 0-4.15 2.84 9.71 9.71 0 0 0-.37-6.4 9.51 9.51 0 0 0-4.32 3.49c1-4.21-.61-9.65-.61-9.65-3.4 2.29-4.49 7.8-4.49 7.8a2.995 2.995 0 0 0-1.2-1.64 4.55 4.55 0 0 0-1.41 3.83c-11.67-9.68-18.57-12.39-21.66-13.15a12.992 12.992 0 0 0 2.28-5.89 7.876 7.876 0 0 0-5.4 1.73 12.515 12.515 0 0 0 0-9c-2.74.55-5.4 5.4-5.4 5.4a15.272 15.272 0 0 0-2.92-10.16c-7.06 5.06-10 10.84-11.11 14.15L165.25 60.76 138 113.81l-15.43-74.14-9.64 66.76L79.65 0h-5.3l-8.68 27.73L55.128-.007H0V245h1024V.007h-44.504ZM776.06 182.87c-25.17-6.12-70.81 2-70.81 2-27.82-2.45-49 4.57-49 4.57a46.871 46.871 0 0 0-25-9.56c60.4-23.07 130.2-20.71 152.45-19.21l-7.64 22.2Z"/><path fill="#fff" d="m340.89 135.97-15.22 14.25 16.84-11.84-1.62-2.41ZM368.02 136.12l-8 8 1.63.69 8.67-5.76-2.3-2.93ZM429.58 117.02l-20.04 19.1 20.04-10-1.81-5.35 4.96-2.79-3.15-.96ZM333.18 184l1.69-9.57 1.98 9.57 1.9-15.47 2.57 11.95 2.2-12.25 2.71 10.57M354.01 173.8l.8-5.13 1.1 5.13h-1.9ZM361.27 170.63l1.02-5.5 2.42 6.2 1.18-5.78 2.35 5.08M384.27 166.49l.35-2.69a.392.392 0 0 1 .137-.218.396.396 0 0 1 .486 0 .392.392 0 0 1 .137.218l.53 2.71L389 166l.54-3.72.82 4.21 4.05-1 .66-5.92.6 5.56.82-.44.21-2.74a.201.201 0 0 1 .195-.156.201.201 0 0 1 .195.156l.5 3 1.48-.77.21-2.57.77 2.57M776.8 184.05s-.19-5.52-5-12.79c0 0-2 2.91-2 8.53a15.456 15.456 0 0 0-5.52-4.56s-1.55 1.84 1.65 9.69l10.87-.87ZM755.2 184.53a27.017 27.017 0 0 0-.48-6.44 6.921 6.921 0 0 0-2.545 1.433 6.92 6.92 0 0 0-1.725 2.357 12.05 12.05 0 0 0 0-7.61s-5.13 3.39-6.1 8.52a12.654 12.654 0 0 0-3-4.7 13.998 13.998 0 0 0-1.84 9.74c1.07 5.42 15.69-3.3 15.69-3.3ZM725.18 189.6a19.79 19.79 0 0 0 .29-6.33 8.113 8.113 0 0 0-2.92 1.86 19.613 19.613 0 0 0-.85-6.88 8.409 8.409 0 0 0-5.22 3.68s.57-1-1.09-4.65a8.995 8.995 0 0 0-3.44 7.64l13.23 4.68ZM707.34 185.13s.81-4.69-1.22-8.45a6.697 6.697 0 0 0-2.83 3.44s.16-1.42-1.21-4.37a9.555 9.555 0 0 0-2.8 6.18s.21-1.25-3.33-3.33a5.925 5.925 0 0 0-.19 3.5 5.237 5.237 0 0 0-3.48-1.13c.03 2.121.572 4.203 1.58 6.07l13.48-1.91Z"/><path stroke="#fff" stroke-miterlimit="10" d="M722.67 192.45s6.82-6.16 10.64-18.18"/><path fill="#fff" d="M733.31 175.54a1.27 1.27 0 1 0-.001-2.541 1.27 1.27 0 0 0 .001 2.541ZM683.26 174.05a1.27 1.27 0 1 0-.001-2.541 1.27 1.27 0 0 0 .001 2.541Z"/><path stroke="#fff" stroke-miterlimit="10" d="m731.35 179.45 4.15-1.36M728.84 184.35l-1.9-3.91M685.41 185.49a45.141 45.141 0 0 0-2.15-12.71M684.76 177.43l2.35-2.71M685.04 180.68l-3.43-2.44"/><path fill="#fff" d="m788.25 149.7-2.56-8.31-2.47 10.53-2.55-8.47-1.89 8.8-8.08.35-3.7-14.82-2.81 15.22-2-10-1.6 10-5.29-.95-2.55-11.7-1.6 6.65-.86-8.88a.398.398 0 0 0-.373-.367.404.404 0 0 0-.417.317l-2.16 9.74-1-8.35-3.44 12.6-6.37-1.83-1.91-16.12-2.19 16v8.06l49.22-1.45 7.47-3.68-.87-3.34ZM695.66 146.89l-1.51-10.63-2.64 11.36-8.41-1.25-2.17-9.56a.403.403 0 0 0-.39-.311.404.404 0 0 0-.25.087.406.406 0 0 0-.14.224L678 147.1l-5.6-1.1-.81-15.53-1.9 17.14-1.09-10.79a.32.32 0 0 0-.64 0l-1.28 11.67-5-.59-2-10-.87 11.53h-7.27l-1.25-8.84-1.51 9.71-1.49-5.6a.49.49 0 0 0-.95 0l-1.34 5.82-3.25-13-2.26 13h-5.76l-.81-11.08-1.19 11.56-2-1.19-.39-7.14a.263.263 0 0 0-.255-.209.26.26 0 0 0-.255.209l-1.74 8.33-1.57-14.2-2.94 13.26-4.58-1.29-1.07-10.09-1.87 7.32-1.63-10.27-1.75 9.52-1.57-6.83-2.88 11-4.32-.44-1.2-6.39a.627.627 0 0 0-.591-.526.63.63 0 0 0-.639.466l-2 6.77-13-.44-1.25-6.7-2.26 7.14-.97-5.48-1.44 5.2h-3.96l-.94-4.57-.75 5.13h-2.69l-.89-4.43-1.13 5 82.34 6.26 45.31-1.41-1.19-8.11Z"/><path stroke="#fff" stroke-linecap="round" stroke-miterlimit="10" d="M593.35 142.07V150M595.47 124.5v7.93M592.89 126.05v7.93M597.98 124.5v7.93M603.41 124.98v3.69M605.64 123.58v3.69M608.5 124.2v3.69M585.21 126.36v7.93M583.08 127.47v7.93M575.44 125.63v7.93M573.28 127.47v7.93M570.57 127.09v7.93M561.17 126.82v7.93M558 128.47v7.93M555.08 129.33v7.93M551.75 129.33v7.93M548.56 127.47v7.93M546.5 129.33v7.93M543.96 128.47v7.93M533.91 129.07V137M532.31 130.79v7.93M530.33 129.6v7.93M527.81 131.05v7.93M525.35 132.05v7.93M521.93 130.59v7.93M519.29 129.6v7.93M514.47 131.43v7.93M512.42 130.79v7.93M509.8 132.43v7.93M506.85 131.43v7.93M501.95 133.3v7.93M499.09 133.77v7.93M497.05 133.03v7.93M494.71 134.55v7.93M490.38 133.98v7.93M426.62 143.24v7.93M424.13 144.76v7.92M418.81 145.74v7.93M415.73 145.33v7.92M413.42 147.2v7.93M410.52 146.79v7.93M408.1 148.1v7.93"/><path fill="#fff" d="m538.48 127.89-1.45 6.4 3.25.26-1.8-6.66ZM564.53 126.05l-1.52 6h3.39l-1.87-6ZM588.64 122.81l-1.31 6.79 3.17-.27-1.86-6.52ZM483.83 138.98l-.69-4.69-.76 6.07 1.45-1.38ZM478.37 139.98l-1.66-4.96-1.31 6.68-1.94.21-1.03-4.38-1.15 5.24h-2.38l-.83-6.75-.69 7.31h-2.07l-1.38-3.97-.62 3.97-3.05.42-1.14-3.77-.55 4.04-10.67 1.04-.97-4.7-.97 5.04h-3.04l-1.17-5.04-1.18 5.7-2.28-.52-.9-4.31-.89 4.83h-3.77l-1.48-4.15-1.25 4.74-1.59-3.11-.48 3.11.62 2.07h30.57l20.7-4.01-1.45-4.73Z"/><path stroke="#E8F0FE" stroke-linecap="round" stroke-linejoin="round" d="M76.32 167.36V25.77M76.32 71.46l-13.5-13.49M76.32 101.15l19.66-19.66M76.32 135.97l-22.73-22.73M123.1 71.46v82.84M123.1 108.65l8.8-8.79M123.1 135.97l-8.76-8.76M165.28 72.42v93.15M175.21 91.22l-9.93 9.93M165.28 142.77l-20.63-20.63M805.52 119.51v62.37M814.89 134.77l-8.68 8.68M792.41 156.72l13.11 13.12M842.47 83.57v79.71M850.77 102.64 843 110.4M831.22 134.77l11.25 11.24M881.55 40.48v105.53M887.44 75.6l-5.89 5.89M871.11 115.76l10.44 10.44M908.17 88.95v64.93M918.36 104.14l-10.19 10.19M897.98 129.13l10.19 10.19M950.48 53.9v82.22M960.48 79.32l-9.82 9.82M938.88 98.58l11.6 11.59"/><path fill="#fff" d="M268.29 156.79a1.56 1.56 0 1 0 0-3.12 1.56 1.56 0 0 0 0 3.12Z"/><path stroke="#fff" stroke-miterlimit="10" d="M254.1 174.11s4.37-12.82 14.19-18.88M261.62 161.09l-.99-4.71M257.96 166.19h4.41M295.49 187.35s.78-10.71 6-16.9"/><path fill="#fff" d="M269.17 171.29a1.56 1.56 0 1 0-.001-3.121 1.56 1.56 0 0 0 .001 3.121ZM301.48 172.1a1.56 1.56 0 1 0-.001-3.121 1.56 1.56 0 0 0 .001 3.121Z"/><path stroke="#fff" stroke-miterlimit="10" d="M269.53 170.94s2.67 8.66 1.85 13.8M298.33 175.75l-2.3-4.81M296.75 180.38l3.89-.93M267.55 175.42l3.25.65M270.54 173.57l1.93-1.94"/><path fill="#8AB4F8" d="m473.29 25.48-1.38.35a.931.931 0 0 0-.6 1.32l4.25 8.47 8.11-2.06-9.13-7.79a1.42 1.42 0 0 0-1.25-.29Z"/><path fill="#fff" d="m475.56 35.62-4.25-8.47a.928.928 0 0 1 .6-1.32l.25-.06 4.77 9.5-1.37.35Z"/><path fill="#fff" d="m463.336 38.207 28.472-7.083a2.34 2.34 0 0 1 2.836 1.706 2.347 2.347 0 0 1-.876 2.455 2.336 2.336 0 0 1-.828.39l-28.472 7.083-1.132-4.551Z"/><path fill="#fff" d="M463.79 34.42a1.354 1.354 0 0 0-.843.611 1.35 1.35 0 0 0-.157 1.029l1.09 4.42 4.81-1.2-3.53-4.4a1.35 1.35 0 0 0-1.37-.46Z"/><path fill="#8AB4F8" d="M464.49 42.89 493 35.8a2.333 2.333 0 0 0 1.77-2.29l-30.68 7.63.4 1.75Z"/><path fill="#8AB4F8" d="m478.83 50-1.38.34a.926.926 0 0 1-1.058-.478.924.924 0 0 1-.102-.402L476 40l8.12-2-4.37 11.17a1.4 1.4 0 0 1-.92.83Z"/><path fill="#fff" d="m476 40 .25 9.47a.924.924 0 0 0 .368.72.922.922 0 0 0 .792.16l.25-.06-.28-10.63L476 40Z"/><path stroke="#AECBFA" stroke-miterlimit="10" d="M706.75 169.54h48.41"/><path stroke="#F4AFB6" stroke-linecap="round" stroke-miterlimit="10" stroke-width="1.98" d="M731.41 142a7.054 7.054 0 0 1-.21-4"/><path fill="#56A55C" d="M732.21 140.79a5.729 5.729 0 0 0 2 3.61 4.714 4.714 0 0 0 3.78 1l.48 3.19a8.001 8.001 0 0 1-6.27-1.65 8.891 8.891 0 0 1-3.16-5.65 3.886 3.886 0 0 1-.06-.48"/><path fill="#F4AFB6" d="M740.81 143.8h-3.26v2.58h3.26v-2.58Z"/><path fill="#EE675C" d="M739.79 144.96a3.47 3.47 0 1 0-.001-6.941 3.47 3.47 0 0 0 .001 6.941Z"/><path fill="#56A55C" d="M739 145.5h1.56a3.374 3.374 0 0 1 2.86 2.7l-.18 8.2h-10.45l1.1-11"/><path fill="#343659" d="m734.08 156.4-3 13.64h4.1l3-9.41.66 9.41H743s.12-5.2.27-13.64h-9.19Z"/><path fill="#F4AFB6" d="M713.8 108.73H709v7.15h4.8v-7.15ZM723.23 123.1a41.735 41.735 0 0 1 9.51 12s.87 2.09-.33 3.3c0 0-1.42 1.34-2.42 0s.17-3 .17-3-2.62-3.76-9-8.9l2.07-3.4Z"/><path fill="#EE675C" d="m717.15 110.83 4.87 1.51c5.28 1.62 6.83-2.8 6.83-2.8 12.37 3.81 13.2-5.35 13.2-5.35-2.6 4-6.85 1.69-12.21 0-5.36-1.69-5.89 1.86-5.89 1.86a16.193 16.193 0 0 1-5-2.65c-1.59-1.43-3.16-3.09-5.23-3.8a6.068 6.068 0 0 0-6.23 1.35 5.81 5.81 0 0 0-1.46 5 7.385 7.385 0 0 0 2.92 5c3.62 2.64 8.2-.12 8.2-.12Z"/><path fill="#F9AB00" d="M718.65 144.47a83.745 83.745 0 0 0 9.83 25.53h-8.11a52.391 52.391 0 0 1-8.87-15.88s1.68 13.48 2.5 15.88h-7.33a57.834 57.834 0 0 1-3.1-36.29h14.32v1.09c-.13 3.242.125 6.488.76 9.67Z"/><path fill="#4285F4" d="M717.85 136.52h-19.33l3.93-18.4-5.85-5.84 4.39-4.39 6.22 5.25s10.18 2.06 16 10a23.285 23.285 0 0 1-4.76 6.61l-.6 6.77Z"/><path fill="#4B4D75" d="m718.461 113.328-11.209-.08a1.88 1.88 0 0 0-1.894 1.866l-.114 15.94a1.88 1.88 0 0 0 1.867 1.893l11.209.08a1.88 1.88 0 0 0 1.894-1.866l.114-15.94a1.88 1.88 0 0 0-1.867-1.893Z"/><path fill="#343757" d="M710.78 132.94h-3.66a1.873 1.873 0 0 1-1.733-1.168 1.861 1.861 0 0 1-.137-.722l.11-15.94a1.887 1.887 0 0 1 1.9-1.87h1.67a1.858 1.858 0 0 1 1.323.558 1.866 1.866 0 0 1 .537 1.332l-.01 17.81Z"/><path fill="#F4AFB6" d="M701 107.89 682.28 90.6a.63.63 0 0 0-.83 0 .619.619 0 0 0-.06.84l1.93 2.32v.62c-.004.744.279 1.46.79 2L697.92 111l3.08-3.11Z"/><path fill="#F29900" d="M712.72 170c-1.48-6.44-3.69-18.41-2-27.12l1.22.24c-.71 3.64-1.37 12.09 2 26.88h-1.22Z"/><path fill="#EA4335" d="M709.88 137.59a3.387 3.387 0 0 1-3.206-3.385 3.386 3.386 0 0 1 3.206-3.385h10.6a3.39 3.39 0 1 1 0 6.77h-10.6Z"/><path fill="#C5221F" d="M709.88 137.59a3.38 3.38 0 1 0 0-6.76 3.38 3.38 0 0 0 0 6.76Z"/><path fill="#4B4D75" d="M715.09 113.27h5a1.889 1.889 0 0 1 1.87 1.9l-.06 5.51a1.871 1.871 0 0 1-.558 1.326 1.878 1.878 0 0 1-1.332.544h-5.07"/><path stroke="#343757" stroke-miterlimit="10" stroke-width="1.24" d="M720.28 123.1h-7a3.079 3.079 0 0 1-3.08-3.08v-4.14"/><path fill="#DA5040" d="M709.88 135.95a1.74 1.74 0 1 0 0-3.48 1.74 1.74 0 0 0 0 3.48Z"/><path fill="#343757" d="M716.97 122.53h-2.37v3.58h2.37v-3.58Z"/><path fill="#1967D2" d="M741.77 154.51h-4.06c-.141 0-.281-.028-.412-.082a1.086 1.086 0 0 1-.58-.586 1.078 1.078 0 0 1-.078-.412v-5.23a3.106 3.106 0 0 1 .904-2.199 3.099 3.099 0 0 1 2.196-.911h1.85l1.26 8.34c0 .286-.114.561-.316.764a1.084 1.084 0 0 1-.764.316Z"/><path fill="#4285F4" d="M741.49 145.09a3.11 3.11 0 0 1 3.11 3.11v5.24c0 .284-.113.556-.313.757-.201.2-.473.313-.757.313h-4.07a1.07 1.07 0 0 1-1.07-1.07v-5.24a3.11 3.11 0 0 1 3.11-3.11h-.01Z"/><path stroke="#265BB6" stroke-miterlimit="10" d="M739.54 149.94v-1.74a2.001 2.001 0 0 1 4 0v1.74"/><path fill="#EE675C" d="M742.19 146.26a1.79 1.79 0 1 0-.002-3.582 1.79 1.79 0 0 0 .002 3.582Z"/><path fill="#fff" d="M763.83 169.26a1.27 1.27 0 1 0-.001-2.541 1.27 1.27 0 0 0 .001 2.541Z"/><path stroke="#fff" stroke-miterlimit="10" d="M755.22 184s.06-8.52 8.61-16M758.25 174.27l3.9-1.15M756.95 176.86l-1.84-2.97"/></g><defs><clipPath id="a"><path fill="#fff" d="M0 0h1024v245H0z"/></clipPath></defs></svg>